<svg width="20" height="20" viewBox="0 0 20 20" fill="none" xmlns="http://www.w3.org/2000/svg">
<path d="M19.4972 9.74861C19.4972 8.97946 18.8737 8.35595 18.1046 8.35595H11.1413V1.39266C11.1413 0.623514 10.5178 0 9.74861 0C8.97946 0 8.35595 0.623514 8.35595 1.39266V8.35595H1.39266C0.623514 8.35595 0 8.97946 0 9.74861C0 10.5178 0.623514 11.1413 1.39266 11.1413H8.35595V18.1046C8.35595 18.8737 8.97946 19.4972 9.74861 19.4972C10.5178 19.4972 11.1413 18.8737 11.1413 18.1046V11.1413H18.1046C18.8737 11.1413 19.4972 10.5178 19.4972 9.74861Z" fill="white" style="fill:white;fill-opacity:1;"/>
</svg>
