<?xml version="1.0" encoding="UTF-8"?>
<svg version="1.1" xmlns="http://www.w3.org/2000/svg" width="500" height="500">
<path d="M0 0 C25.47057045 -0.04686331 50.94113437 -0.08205875 76.41173935 -0.10362434 C88.24000241 -0.11390682 100.06823858 -0.12790879 111.89648438 -0.15087891 C122.21422477 -0.17090599 132.53194568 -0.18373841 142.84970498 -0.18817699 C148.30536327 -0.19076869 153.76096583 -0.19679611 159.21660614 -0.21146011 C164.36787805 -0.22519181 169.51907209 -0.22919169 174.67036057 -0.22621536 C176.54543101 -0.22675864 178.4205045 -0.23064213 180.29555893 -0.23841095 C189.81914748 -0.27588224 199.2317468 -0.03612996 208.71539307 0.88919067 C209.5152078 0.96678175 210.31502254 1.04437282 211.13907409 1.12431514 C232.20562787 3.39646397 252.95671567 11.0317198 272 20 C272 20.66 272 21.32 272 22 C272.73476563 22.10699219 273.46953125 22.21398437 274.2265625 22.32421875 C277.1911339 23.04657206 278.90503221 24.05142188 281.375 25.8125 C284.01366623 27.64828259 286.55799029 29.30999461 289.375 30.875 C294.5354269 33.75410342 299.46849096 37.21418232 304 41 C304 41.66 304 42.32 304 43 C304.8353125 43.35964844 304.8353125 43.35964844 305.6875 43.7265625 C308.50976041 45.28071266 310.62708607 47.1974174 313 49.375 C313.845625 50.14585938 314.69125 50.91671875 315.5625 51.7109375 C316.7690625 52.84402344 316.7690625 52.84402344 318 54 C318.763125 54.71414062 319.52625 55.42828125 320.3125 56.1640625 C322 58 322 58 322 60 C322.66 60 323.32 60 324 60 C328 64.47058824 328 64.47058824 328 67 C328.66 67 329.32 67 330 67 C330 67.66 330 68.32 330 69 C330.66 69 331.32 69 332 69 C333.41699219 70.75317383 333.41699219 70.75317383 335.046875 73.20703125 C335.645 74.10486328 336.243125 75.00269531 336.859375 75.92773438 C337.79523438 77.35569336 337.79523438 77.35569336 338.75 78.8125 C339.3584375 79.72193359 339.966875 80.63136719 340.59375 81.56835938 C344.76059018 87.86758893 348.48191327 94.31929142 352 101 C352.556875 102.03511719 353.11375 103.07023437 353.6875 104.13671875 C374.4740236 144.53433753 378.89764954 195.94422832 365.5078125 239.4296875 C357.10337631 265.39359525 344.90814187 288.29038643 327 309 C326.40058594 309.7321875 325.80117188 310.464375 325.18359375 311.21875 C323.83745471 312.85357909 322.42626617 314.43458591 321 316 C320.34 316 319.68 316 319 316 C319 316.66 319 317.32 319 318 C318.34 318 317.68 318 317 318 C316.62875 318.86818359 316.62875 318.86818359 316.25 319.75390625 C304.00923746 341.74902644 265.25606251 358.00478011 242.40625 364.671875 C234.59866984 366.86807923 227.04358286 368.85091673 219 370 C219 352.51 219 335.02 219 317 C228.79746835 312.64556962 228.79746835 312.64556962 233.625 311.25 C243.95160208 307.90011887 253.56068593 302.33558493 262.36328125 296.03125 C264 295 264 295 266 295 C266 294.34 266 293.68 266 293 C267.65 292.34 269.3 291.68 271 291 C271 290.34 271 289.68 271 289 C272.6796875 287.2734375 272.6796875 287.2734375 274.875 285.375 C275.95394531 284.42753906 275.95394531 284.42753906 277.0546875 283.4609375 C279 282 279 282 281 282 C281 281.34 281 280.68 281 280 C281.66 280 282.32 280 283 280 C283.4021875 279.13375 283.4021875 279.13375 283.8125 278.25 C285.02929189 275.94449957 286.30333879 273.97943808 288 272 C288.66 272 289.32 272 290 272 C290.66 270.35 291.32 268.7 292 267 C292.66 267 293.32 267 294 267 C294.25265625 266.2884375 294.5053125 265.576875 294.765625 264.84375 C296.11367605 261.7381134 297.79325143 259.26068402 299.75 256.5 C317.90987438 229.60499617 322.96662661 194.31866373 317.81640625 162.625 C313.29838958 142.56414129 305.11871262 124.9386414 294.01220703 107.73901367 C293 106 293 106 292 103 C291.34 103 290.68 103 290 103 C290 102.34 290 101.68 290 101 C289.34 101 288.68 101 288 101 C286.80247138 99.56236539 285.66778152 98.07220885 284.5625 96.5625 C280.02454375 90.75489895 274.85248408 86.43370006 269 82 C268.14664062 81.33226562 267.29328125 80.66453125 266.4140625 79.9765625 C240.16950961 60.03700731 210.96684302 52.94217951 178.46728516 52.79467773 C177.0760725 52.78506588 175.68486257 52.77505407 174.2936554 52.76467896 C170.56528214 52.73798119 166.83689667 52.71678482 163.10848284 52.69667697 C159.19407543 52.67459686 155.27970408 52.64731742 151.36532593 52.62062073 C143.97449966 52.57098813 136.58365306 52.52594192 129.19278753 52.48259836 C120.76938284 52.43297208 112.34601437 52.3781493 103.92264485 52.32291877 C86.61513017 52.20955143 69.3075817 52.10261641 52 52 C52.08408544 71.33312017 52.17928633 90.66615562 52.28752708 109.999156 C52.33753524 118.97687789 52.38397898 127.95459118 52.421875 136.93237305 C52.45493489 144.762266 52.49484217 152.59208985 52.54279006 160.42190629 C52.56791669 164.56330774 52.58973787 168.70466418 52.60334396 172.84612083 C52.61629112 176.75395576 52.63847801 180.66163519 52.66738319 184.56938362 C52.67636115 185.99424418 52.68212594 187.41912971 52.68421364 188.84401703 C52.7036101 200.08386052 53.41512649 211.12357138 56.98828125 221.859375 C57.36533203 222.99503906 57.74238281 224.13070312 58.13085938 225.30078125 C58.52080078 226.43902344 58.91074219 227.57726562 59.3125 228.75 C59.69083984 229.90371094 60.06917969 231.05742187 60.45898438 232.24609375 C62.49224994 238.28052318 64.71279995 243.78215572 68.07104492 249.20410156 C69 251 69 251 69 254 C69.66 254 70.32 254 71 254 C72.40234375 256.046875 72.40234375 256.046875 73.9375 258.75 C75.4262661 261.35438878 76.86364998 263.82239858 78.69140625 266.203125 C80 268 80 268 80 270 C80.66 270 81.32 270 82 270 C83.51497459 271.72262555 84.963193 273.50435515 86.375 275.3125 C89.06313957 278.75134076 91.51094688 281.41109072 95 284 C95 284.66 95 285.32 95 286 C95.639375 286.309375 96.27875 286.61875 96.9375 286.9375 C99 288 99 288 100 289 C100.33 226.96 100.66 164.92 101 101 C208.11163895 101 208.11163895 101 233 114 C233 114.66 233 115.32 233 116 C233.7425 116.268125 234.485 116.53625 235.25 116.8125 C237.89061949 117.95276751 239.85552844 119.09380306 242 121 C242 121.66 242 122.32 242 123 C242.61875 123.2475 243.2375 123.495 243.875 123.75 C246.35068687 125.20628639 246.95125002 126.37812506 248 129 C248.66 129 249.32 129 250 129 C250 129.66 250 130.32 250 131 C250.66 131 251.32 131 252 131 C254.5812158 134.4992771 256.73387288 138.29093181 259 142 C259.81791016 143.2375 259.81791016 143.2375 260.65234375 144.5 C264.84325042 150.98364187 267.10091305 157.54060559 269 165 C269.226875 165.83660156 269.45375 166.67320312 269.6875 167.53515625 C274.41646433 188.25721522 270.97138034 212.40802354 259.70385742 230.42675781 C256.70530844 235.12373456 253.70209814 239.81945273 250 244 C249.34 244 248.68 244 248 244 C247.67 244.99 247.34 245.98 247 247 C246.34 247 245.68 247 245 247 C244.7525 247.598125 244.505 248.19625 244.25 248.8125 C242.81927475 251.31626919 241.4308418 252.48072388 239 254 C238.34 254 237.68 254 237 254 C237 254.66 237 255.32 237 256 C235.02 256.66 233.04 257.32 231 258 C231 258.66 231 259.32 231 260 C229.75539217 260.67667998 228.50403104 261.34094719 227.25 262 C226.55390625 262.37125 225.8578125 262.7425 225.140625 263.125 C223 264 223 264 219 264 C218.99453156 262.47689461 218.99453156 262.47689461 218.98895264 260.92301941 C218.95188389 251.31661512 218.8939823 241.71052787 218.81609726 232.10436535 C218.77672151 227.16665069 218.74448467 222.22911174 218.72900391 217.29125977 C218.71377183 212.51885875 218.67921107 207.74694109 218.63169098 202.97475624 C218.61694442 201.16131117 218.60896288 199.34779706 218.60811615 197.53429222 C218.59881044 187.59012291 218.33173029 179.16185532 214 170 C213.32553945 168.33647206 212.65677934 166.67058766 212 165 C211.34 165 210.68 165 210 165 C210 164.34 210 163.68 210 163 C209.34 163 208.68 163 208 163 C208 162.34 208 161.68 208 161 C205.24414194 159.61273962 202.48294758 158.24336627 199.6875 156.9375 C198.96949219 156.59589844 198.25148438 156.25429687 197.51171875 155.90234375 C185.02795804 151.41750903 160.87733541 153.22506673 153 153 C153 224.61 153 296.22 153 370 C144.0682217 368.62588026 136.38364209 367.15796652 128 364.25 C126.95545654 363.89365479 125.91091309 363.53730957 124.8347168 363.17016602 C117.30021819 360.55541399 110.0863663 357.67834545 103 354 C101.93007812 353.45730469 100.86015625 352.91460937 99.7578125 352.35546875 C93.16662922 348.92029911 86.943696 345.12467213 80.8125 340.92578125 C77.43899727 338.61586897 73.99853432 336.41750937 70.546875 334.2265625 C70.03640625 333.82179688 69.5259375 333.41703125 69 333 C69 332.34 69 331.68 69 331 C68.4225 330.731875 67.845 330.46375 67.25 330.1875 C64.94449957 328.97070811 62.97943808 327.69666121 61 326 C61 325.34 61 324.68 61 324 C60.13375 323.62875 60.13375 323.62875 59.25 323.25 C56.67060021 321.81700012 54.93878408 320.21575324 53 318 C53 317.34 53 316.68 53 316 C52.44054687 315.77957031 51.88109375 315.55914062 51.3046875 315.33203125 C31.4233498 303.841292 17.79429271 270.69921447 10 250 C9.63132812 249.11441406 9.26265625 248.22882813 8.8828125 247.31640625 C5.58854984 239.13182345 4.02605221 230.48383323 2.50106621 221.82376385 C2.17732084 219.99929343 1.83792801 218.17749941 1.47969246 216.35948658 C-0.36243852 206.10767114 -0.26773447 195.98884601 -0.22705078 185.61401367 C-0.22648566 183.58256536 -0.22680519 181.55111665 -0.22793579 179.51966858 C-0.22850638 174.0412379 -0.21679991 168.56289595 -0.20278788 163.08448577 C-0.19023126 157.34566057 -0.18910614 151.60683303 -0.18673706 145.86799622 C-0.18053673 135.0169573 -0.16414558 124.16595898 -0.14403808 113.31493789 C-0.12163392 100.9545387 -0.11067431 88.59413751 -0.10064721 76.23372304 C-0.07977801 50.82245957 -0.04463031 25.41123207 0 0 Z " fill="#FBB041" transform="translate(64,65)"/>
<path d="M0 0 C18.28217583 -0.07045054 36.56431585 -0.1231631 54.84659863 -0.15543652 C63.33763893 -0.1708278 71.82859432 -0.19176693 80.31958008 -0.22631836 C87.73053038 -0.25646024 95.14141911 -0.27563102 102.55242902 -0.28226548 C106.46724764 -0.28613634 110.3818903 -0.2950662 114.29665184 -0.31719017 C131.07654612 -0.40847545 147.4482835 -0.12444011 164 3 C164 3.66 164 4.32 164 5 C158.25 5.125 158.25 5.125 156 4 C146.52554384 2.9335649 136.99064071 2.83790023 127.46728516 2.79467773 C126.0760725 2.78506588 124.68486257 2.77505407 123.2936554 2.76467896 C119.56528214 2.73798119 115.83689667 2.71678482 112.10848284 2.69667697 C108.19407543 2.67459686 104.27970408 2.64731742 100.36532593 2.62062073 C92.97449966 2.57098813 85.58365306 2.52594192 78.19278753 2.48259836 C69.76938284 2.43297208 61.34601437 2.3781493 52.92264485 2.32291877 C35.61513017 2.20955143 18.3075817 2.10261641 1 2 C1.10750095 21.33308709 1.22030783 40.66613638 1.33933926 59.999156 C1.39449203 68.97688242 1.44794337 77.95461281 1.49731445 86.93237305 C1.54037737 94.76224057 1.58670889 102.59208096 1.63687855 110.42190629 C1.66330273 114.56330215 1.68814911 118.70469324 1.70907402 122.84612083 C1.72887028 126.75390745 1.75307714 130.66164326 1.78049088 134.56938362 C1.78974124 135.99425189 1.79745779 137.4191312 1.80341911 138.84401703 C1.84117217 147.60732883 2.20000037 156.27211721 3 165 C-2.38317691 155.71873183 -1.28808128 142.61835957 -1.24291992 132.23950195 C-1.24399632 130.82360242 -1.24594028 129.40770333 -1.24867249 127.99180603 C-1.25346204 124.19498925 -1.24594349 120.39829253 -1.23571944 116.60149026 C-1.22685637 112.61243621 -1.22869787 108.62338501 -1.2290802 104.63432312 C-1.22814825 97.95126361 -1.21952174 91.26824995 -1.20581055 84.58520508 C-1.19001912 76.85965466 -1.18481513 69.1341541 -1.1855461 61.40858871 C-1.18622082 53.16321761 -1.17929222 44.91786569 -1.1700995 36.67250037 C-1.16796879 34.30082931 -1.16725845 31.92916133 -1.16686058 29.5574894 C-1.16585763 25.83998218 -1.15976498 22.12251694 -1.14969444 18.40502357 C-1.1453742 16.38874364 -1.14594142 14.3724551 -1.14663696 12.35617065 C-1.14237198 11.16064072 -1.13810699 9.96511078 -1.13371277 8.73335266 C-1.13203692 7.69239598 -1.13036108 6.6514393 -1.12863445 5.57893848 C-1 3 -1 3 0 0 Z " fill="#EFBD74" transform="translate(115,115)"/>
<path d="M0 0 C107.24137931 0 107.24137931 0 124 9 C124 9.33 124 9.66 124 10 C121.125 10.125 121.125 10.125 118 10 C117.01 9.01 117.01 9.01 116 8 C114.00476456 7.24140977 111.97773652 6.56508152 109.9375 5.9375 C108.85339844 5.59589844 107.76929688 5.25429687 106.65234375 4.90234375 C98.4347326 2.87211041 90.36152444 2.90986837 81.9375 3 C67.41869584 3.07517766 52.90651842 2.87641136 38.3899231 2.62768555 C35.84427665 2.58433017 33.29860102 2.54265555 30.75289917 2.50268555 C27.12813792 2.44523924 23.50353323 2.38172468 19.87890625 2.31640625 C18.78518707 2.29969376 17.6914679 2.28298126 16.56460571 2.26576233 C15.53983124 2.24581711 14.51505676 2.22587189 13.45922852 2.20532227 C12.57042496 2.18977798 11.6816214 2.1742337 10.7658844 2.15821838 C7.49312599 1.97100501 4.24516202 1.46359457 1 1 C1 63.37 1 125.74 1 190 C-0.65 190 -2.3 190 -4 190 C-4.33 189.01 -4.66 188.02 -5 187 C-7.01508358 186.26676204 -7.01508358 186.26676204 -9 186 C-8.505 184.02 -8.505 184.02 -8 182 C-7.34 182.33 -6.68 182.66 -6 183 C-6 183.66 -6 184.32 -6 185 C-5.360625 185.309375 -4.72125 185.61875 -4.0625 185.9375 C-2 187 -2 187 -1 188 C-0.67 125.96 -0.34 63.92 0 0 Z " fill="#F3C578" transform="translate(165,166)"/>
<path d="M0 0 C0.33 0 0.66 0 1 0 C1 71.61 1 143.22 1 217 C-13.95439189 214.69932432 -13.95439189 214.69932432 -20.8125 212.375 C-21.51697266 212.14554688 -22.22144531 211.91609375 -22.94726562 211.6796875 C-24.63446682 211.12876466 -26.31772816 210.56579618 -28 210 C-28 209.67 -28 209.34 -28 209 C-25.03 209 -22.06 209 -19 209 C-18.67 209.99 -18.34 210.98 -18 212 C-16.80503906 212.07347656 -16.80503906 212.07347656 -15.5859375 212.1484375 C-14.52632812 212.22320312 -13.46671875 212.29796875 -12.375 212.375 C-11.33085937 212.44460938 -10.28671875 212.51421875 -9.2109375 212.5859375 C-6 213 -6 213 0 215 C0 144.05 0 73.1 0 0 Z " fill="#E8C487" transform="translate(216,218)"/>
<path d="M0 0 C0.33 0.66 0.66 1.32 1 2 C1.66 2 2.32 2 3 2 C3 28.73 3 55.46 3 83 C5.475 82.505 5.475 82.505 8 82 C8 81.34 8 80.68 8 80 C10.90600261 78.74335022 12.79604584 78 16 78 C16.28875 77.38125 16.5775 76.7625 16.875 76.125 C18 74 18 74 20 72 C22.625 71.875 22.625 71.875 25 72 C23.71034824 73.37562854 22.37310707 74.70766393 21 76 C20.34 76 19.68 76 19 76 C19 76.66 19 77.32 19 78 C16.03 78.99 16.03 78.99 13 80 C13 80.66 13 81.32 13 82 C11.75539217 82.67667998 10.50403104 83.34094719 9.25 84 C8.55390625 84.37125 7.8578125 84.7425 7.140625 85.125 C5 86 5 86 1 86 C0.67 57.62 0.34 29.24 0 0 Z " fill="#ECB86A" transform="translate(282,243)"/>
<path d="M0 0 C2.31 0 4.62 0 7 0 C7 0.33 7 0.66 7 1 C5.02 1 3.04 1 1 1 C1 63.37 1 125.74 1 190 C-0.65 190 -2.3 190 -4 190 C-4.33 189.01 -4.66 188.02 -5 187 C-7.01508358 186.26676204 -7.01508358 186.26676204 -9 186 C-8.505 184.02 -8.505 184.02 -8 182 C-7.34 182.33 -6.68 182.66 -6 183 C-6 183.66 -6 184.32 -6 185 C-5.360625 185.309375 -4.72125 185.61875 -4.0625 185.9375 C-2 187 -2 187 -1 188 C-0.67 125.96 -0.34 63.92 0 0 Z " fill="#ECB966" transform="translate(165,166)"/>
<path d="M0 0 C-0.66 0 -1.32 0 -2 0 C-2 0.66 -2 1.32 -2 2 C-4.64 2.66 -7.28 3.32 -10 4 C-10 20.17 -10 36.34 -10 53 C-9.34 53.33 -8.68 53.66 -8 54 C-8 53.34 -8 52.68 -8 52 C-4.7 52 -1.4 52 2 52 C-1 54 -1 54 -13 56 C-13 38.51 -13 21.02 -13 3 C-4 -1 -4 -1 0 0 Z " fill="#ECB96E" transform="translate(296,379)"/>
<path d="M0 0 C1.15482283 3.46446849 0.81680666 4.2824229 -0.328125 7.640625 C-0.78638672 8.99994141 -0.78638672 8.99994141 -1.25390625 10.38671875 C-1.74697266 11.80404297 -1.74697266 11.80404297 -2.25 13.25 C-2.56324219 14.17941406 -2.87648438 15.10882813 -3.19921875 16.06640625 C-4.93140739 21.1479721 -6.80705204 26.09970887 -9 31 C-10.37432457 27.18243176 -9.67975039 23.92744671 -9 20 C-8.01 20 -7.02 20 -6 20 C-5.97873047 18.96552734 -5.97873047 18.96552734 -5.95703125 17.91015625 C-5.59473407 10.77192264 -3.96845544 5.93071754 0 0 Z " fill="#F4BF72" transform="translate(430,296)"/>
<path d="M0 0 C0.94875 0.350625 1.8975 0.70125 2.875 1.0625 C-0.20013046 4.43618681 -3.41018856 6.57151962 -7.375 8.8125 C-8.99148438 9.73289062 -8.99148438 9.73289062 -10.640625 10.671875 C-11.87039063 11.36023438 -11.87039063 11.36023438 -13.125 12.0625 C-13.455 11.0725 -13.785 10.0825 -14.125 9.0625 C-13.135 8.4025 -12.145 7.7425 -11.125 7.0625 C-10.07254908 5.90292939 -9.05275057 4.71312026 -8.0625 3.5 C-4.17859826 -1.25357948 -4.17859826 -1.25357948 0 0 Z " fill="#F6B95C" transform="translate(355.125,401.9375)"/>
<path d="M0 0 C6.19302201 -0.04944073 12.38592909 -0.08573905 18.57910156 -0.10986328 C20.68589275 -0.11992034 22.79266999 -0.13356768 24.89941406 -0.15087891 C27.92776941 -0.17514 30.95594019 -0.18648608 33.984375 -0.1953125 C34.92617615 -0.20563507 35.86797729 -0.21595764 36.83831787 -0.22659302 C37.71892883 -0.22674408 38.59953979 -0.22689514 39.50683594 -0.22705078 C40.27960876 -0.231492 41.05238159 -0.23593323 41.84857178 -0.24050903 C44.33881588 0.03787636 45.90863362 0.62274737 48 2 C48.495 3.485 48.495 3.485 49 5 C48.20255371 4.79141357 47.40510742 4.58282715 46.58349609 4.36791992 C36.52294429 1.95181441 26.92631563 1.46029964 16.625 1.3125 C15.00257843 1.27922705 13.38018151 1.24472872 11.7578125 1.20898438 C7.83868113 1.12524575 3.91959452 1.05791401 0 1 C0 0.67 0 0.34 0 0 Z " fill="#EBB35F" transform="translate(217,217)"/>
<path d="M0 0 C1.5478186 5.16324562 0.69844734 9.90465799 -1 15 C-1.99 15.495 -1.99 15.495 -3 16 C-3 15.34 -3 14.68 -3 14 C-3.66 14 -4.32 14 -5 14 C-5.12117188 14.63808594 -5.24234375 15.27617187 -5.3671875 15.93359375 C-5.53476562 16.75988281 -5.70234375 17.58617187 -5.875 18.4375 C-6.03742188 19.26121094 -6.19984375 20.08492188 -6.3671875 20.93359375 C-6.57601563 21.61550781 -6.78484375 22.29742187 -7 23 C-7.66 23.33 -8.32 23.66 -9 24 C-9.66 23.67 -10.32 23.34 -11 23 C-9.83536892 19.71785788 -8.3421012 16.76681472 -6.625 13.75 C-4.09991651 9.29176653 -1.99548241 4.71558134 0 0 Z " fill="#F3C270" transform="translate(373,303)"/>
<path d="M0 0 C1.32 0 2.64 0 4 0 C4 0.66 4 1.32 4 2 C5.093125 1.938125 6.18625 1.87625 7.3125 1.8125 C11 2 11 2 12.9375 3.375 C14 5 14 5 14 7 C14.94875 7.309375 15.8975 7.61875 16.875 7.9375 C20 9 20 9 22 10 C22 10.66 22 11.32 22 12 C17.47272567 10.62332505 13.47379323 8.80988833 9.3125 6.5625 C8.19488281 5.96566406 7.07726562 5.36882812 5.92578125 4.75390625 C3.51954548 3.31144983 1.8160119 2.09836004 0 0 Z " fill="#F3BF71" transform="translate(151,409)"/>
<path d="M0 0 C11.49748838 -0.9739049 23.04869309 2.31353891 33 8 C33 8.33 33 8.66 33 9 C30.125 9.125 30.125 9.125 27 9 C26.34 8.34 25.68 7.68 25 7 C16.89929752 3.90480621 8.5678174 2.17325067 0 1 C0 0.67 0 0.34 0 0 Z " fill="#F0C47A" transform="translate(256,167)"/>
<path d="M0 0 C4.96768758 1.55240237 9.17867057 4.51054781 13 8 C13 8.66 13 9.32 13 10 C13.99 10.33 14.98 10.66 16 11 C13 12 13 12 10 11 C9.67 10.34 9.34 9.68 9 9 C7.68 9.33 6.36 9.66 5 10 C5 8.35 5 6.7 5 5 C4.38125 4.87625 3.7625 4.7525 3.125 4.625 C1 4 1 4 -1 2 C-0.67 1.34 -0.34 0.68 0 0 Z " fill="#F5BD5F" transform="translate(355,98)"/>
<path d="M0 0 C4.80649841 8.77239845 6.59629635 19.10926046 7 29 C1.87466326 22.51258746 1.71156554 15.96399582 2 8 C1.34 8 0.68 8 0 8 C0 5.36 0 2.72 0 0 Z " fill="#F3BB6C" transform="translate(427,194)"/>
<path d="M0 0 C9.07231852 1.26371173 17.40369483 3.96055067 26 7 C26 7.33 26 7.66 26 8 C23.69 8 21.38 8 19 8 C19 7.34 19 6.68 19 6 C16.69 6.33 14.38 6.66 12 7 C11.67 6.01 11.34 5.02 11 4 C7.37 3.34 3.74 2.68 0 2 C0 1.34 0 0.68 0 0 Z " fill="#F2BF72" transform="translate(288,69)"/>
<path d="M0 0 C0.99 0.33 1.98 0.66 3 1 C3 1.66 3 2.32 3 3 C3.66 3 4.32 3 5 3 C5 4.65 5 6.3 5 8 C5.66 8 6.32 8 7 8 C7 8.99 7 9.98 7 11 C7.66 11 8.32 11 9 11 C9.33 12.65 9.66 14.3 10 16 C10.99 16.33 11.98 16.66 13 17 C14.1875 20.5625 14.1875 20.5625 15 24 C11.5795103 20.87029018 9.31781674 17.52969457 6.9375 13.5625 C6.26589844 12.45003906 5.59429687 11.33757812 4.90234375 10.19140625 C4.27457031 9.13824219 3.64679688 8.08507812 3 7 C2.42378906 6.08089844 1.84757812 5.16179687 1.25390625 4.21484375 C0 2 0 2 0 0 Z " fill="#F2C073" transform="translate(84,336)"/>
<path d="M0 0 C0.99 0.495 0.99 0.495 2 1 C2.42632682 3.62013356 2.75076761 6.17479054 3 8.8125 C3.42927986 13.28416521 3.96941581 16.96400414 6 21 C6.1953125 24.015625 6.1953125 24.015625 6.125 27.25 C6.10695313 28.32765625 6.08890625 29.4053125 6.0703125 30.515625 C6.04710938 31.33546875 6.02390625 32.1553125 6 33 C5.67 33 5.34 33 5 33 C2.63163268 22.01400147 0.41102283 11.26202546 0 0 Z " fill="#F2BF74" transform="translate(65,271)"/>
<path d="M0 0 C3.22421992 1.61210996 3.81293094 4.97996871 5.0625 8.1875 C5.33126953 8.84814453 5.60003906 9.50878906 5.87695312 10.18945312 C7.42971984 14.11202839 8.46911586 17.78569751 9 22 C4.6409923 18.51279384 4.05447817 15.27239085 3 10 C2.01 10 1.02 10 0 10 C0 6.7 0 3.4 0 0 Z " fill="#F2BD6B" transform="translate(418,172)"/>
<path d="M0 0 C2.97 0 5.94 0 9 0 C9.33 0.99 9.66 1.98 10 3 C11.19496094 3.07347656 11.19496094 3.07347656 12.4140625 3.1484375 C22.93848858 3.89103691 22.93848858 3.89103691 28 6 C28 6.33 28 6.66 28 7 C18.00376278 6.79174506 9.35632897 4.21772227 0 1 C0 0.67 0 0.34 0 0 Z " fill="#EFBA73" transform="translate(188,427)"/>
<path d="M0 0 C0.78375 0.04125 1.5675 0.0825 2.375 0.125 C1.08534824 1.50062854 -0.25189293 2.83266393 -1.625 4.125 C-2.285 4.125 -2.945 4.125 -3.625 4.125 C-3.625 4.785 -3.625 5.445 -3.625 6.125 C-5.605 6.785 -7.585 7.445 -9.625 8.125 C-9.625 8.785 -9.625 9.445 -9.625 10.125 C-12.27238916 11.5856285 -13.51948334 12.125 -16.625 12.125 C-16.625 11.465 -16.625 10.805 -16.625 10.125 C-15.965 10.125 -15.305 10.125 -14.625 10.125 C-14.625 9.465 -14.625 8.805 -14.625 8.125 C-11.71899739 6.86835022 -9.82895416 6.125 -6.625 6.125 C-6.191875 5.196875 -6.191875 5.196875 -5.75 4.25 C-4.16515329 1.25640067 -3.47581022 0.16551477 0 0 Z " fill="#F1C175" transform="translate(304.625,314.875)"/>
<path d="M0 0 C0 4.16121329 -1.79554605 5.53446604 -4.4375 8.6875 C-5.67306641 10.17830078 -5.67306641 10.17830078 -6.93359375 11.69921875 C-7.95646484 12.83810547 -7.95646484 12.83810547 -9 14 C-9.33 14 -9.66 14 -10 14 C-10.33 12.02 -10.66 10.04 -11 8 C-9.35 8 -7.7 8 -6 8 C-5.814375 7.1028125 -5.814375 7.1028125 -5.625 6.1875 C-5 4 -5 4 -3 1 C-2.01 0.67 -1.02 0.34 0 0 Z " fill="#F2BF73" transform="translate(400,360)"/>
<path d="M0 0 C0.66 0 1.32 0 2 0 C0.51131293 4.60139641 -1.74629855 7.50227094 -5 11 C-5.66 11 -6.32 11 -7 11 C-7.33 11.99 -7.66 12.98 -8 14 C-8.66 13.67 -9.32 13.34 -10 13 C-10 12.01 -10 11.02 -10 10 C-9.34 10 -8.68 10 -8 10 C-8 9.34 -8 8.68 -8 8 C-6.68 7.67 -5.36 7.34 -4 7 C-4 5.35 -4 3.7 -4 2 C-2.68 2 -1.36 2 0 2 C0 1.34 0 0.68 0 0 Z " fill="#F1C478" transform="translate(319,298)"/>
<path d="M0 0 C0.99 0.33 1.98 0.66 3 1 C3.144375 1.9075 3.28875 2.815 3.4375 3.75 C3.86409473 6.21476956 4.35074221 8.58847107 5 11 C5.66 11 6.32 11 7 11 C7.33 15.29 7.66 19.58 8 24 C5.34661659 21.34661659 4.98959775 18.98548554 4 15.375 C3.65453125 14.12203125 3.3090625 12.8690625 2.953125 11.578125 C1.92731851 7.72714656 0.93003732 3.8751555 0 0 Z " fill="#F2C784" transform="translate(374,200)"/>
<path d="M0 0 C1.9375 0.375 1.9375 0.375 4 1 C4.33 1.66 4.66 2.32 5 3 C5.99 3.33 6.98 3.66 8 4 C8.33 5.65 8.66 7.3 9 9 C9.66 9 10.32 9 11 9 C11.99 10.485 11.99 10.485 13 12 C12.67 12.99 12.34 13.98 12 15 C11.67 14.01 11.34 13.02 11 12 C10.34 12 9.68 12 9 12 C9 11.34 9 10.68 9 10 C8.34 10 7.68 10 7 10 C5.2734375 8.06640625 5.2734375 8.06640625 3.375 5.5625 C2.74335938 4.73878906 2.11171875 3.91507813 1.4609375 3.06640625 C0 1 0 1 0 0 Z " fill="#F1C376" transform="translate(345,156)"/>
<path d="M0 0 C4.47238653 1.41807378 8.71146306 3.11304374 13 5 C13 5.66 13 6.32 13 7 C11.35 7 9.7 7 8 7 C8 6.34 8 5.68 8 5 C7.05125 5.20625 6.1025 5.4125 5.125 5.625 C4.09375 5.74875 3.0625 5.8725 2 6 C1.34 5.34 0.68 4.68 0 4 C0 2.68 0 1.36 0 0 Z " fill="#F5BD69" transform="translate(323,80)"/>
<path d="M0 0 C0.99 0 1.98 0 3 0 C1.57250019 3.79049707 -0.16236542 7.27122456 -2.125 10.8125 C-2.93324219 12.27623047 -2.93324219 12.27623047 -3.7578125 13.76953125 C-4.37269531 14.87361328 -4.37269531 14.87361328 -5 16 C-5.33 16 -5.66 16 -6 16 C-6 14.35 -6 12.7 -6 11 C-5.34 11 -4.68 11 -4 11 C-4 9.35 -4 7.7 -4 6 C-3.34 6 -2.68 6 -2 6 C-2 5.34 -2 4.68 -2 4 C-1.34 4 -0.68 4 0 4 C0 2.68 0 1.36 0 0 Z " fill="#F2C27F" transform="translate(415,332)"/>
<path d="M0 0 C0.99 0 1.98 0 3 0 C5 3 5 3 5 7 C6.32 7.33 7.64 7.66 9 8 C7.68 9.32 6.36 10.64 5 12 C4.16180842 10.37750059 3.3295884 8.75191503 2.5 7.125 C2.0359375 6.22007812 1.571875 5.31515625 1.09375 4.3828125 C0 2 0 2 0 0 Z " fill="#F5B146" transform="translate(278,233)"/>
<path d="M0 0 C0.66 0 1.32 0 2 0 C2 1.65 2 3.3 2 5 C2.66 5 3.32 5 4 5 C4.28875 6.134375 4.5775 7.26875 4.875 8.4375 C5.24625 9.613125 5.6175 10.78875 6 12 C6.66 12.33 7.32 12.66 8 13 C8 14.98 8 16.96 8 19 C5.41589795 15.85512507 3.86214318 12.69294159 2.3125 8.9375 C1.87550781 7.89464844 1.43851562 6.85179687 0.98828125 5.77734375 C0 3 0 3 0 0 Z " fill="#F2C37E" transform="translate(75,315)"/>
<path d="M0 0 C1.98 0.99 1.98 0.99 4 2 C4 3.32 4 4.64 4 6 C4.99 6.33 5.98 6.66 7 7 C7.12375 8.134375 7.2475 9.26875 7.375 10.4375 C7.684375 12.2009375 7.684375 12.2009375 8 14 C8.66 14.33 9.32 14.66 10 15 C9.01 16.485 9.01 16.485 8 18 C6.66180502 15.3773768 5.3292849 12.75213401 4 10.125 C3.6184375 9.37863281 3.236875 8.63226563 2.84375 7.86328125 C2.4828125 7.14785156 2.121875 6.43242187 1.75 5.6953125 C1.41484375 5.03547363 1.0796875 4.37563477 0.734375 3.69580078 C0 2 0 2 0 0 Z " fill="#F1C377" transform="translate(365,182)"/>
<path d="M0 0 C0.33 0.99 0.66 1.98 1 3 C0.34 3 -0.32 3 -1 3 C-1.061875 3.598125 -1.12375 4.19625 -1.1875 4.8125 C-2.31977322 7.8609279 -4.24532024 8.41605914 -7 10 C-7.33 10.99 -7.66 11.98 -8 13 C-9.32 13 -10.64 13 -12 13 C-12 11 -12 11 -10.3203125 9.2734375 C-9.59585937 8.64695312 -8.87140625 8.02046875 -8.125 7.375 C-7.04605469 6.42753906 -7.04605469 6.42753906 -5.9453125 5.4609375 C-4 4 -4 4 -2 4 C-2 3.34 -2 2.68 -2 2 C-1.34 2 -0.68 2 0 2 C0 1.34 0 0.68 0 0 Z " fill="#F2C980" transform="translate(347,343)"/>
<path d="M0 0 C3.08089673 2.77280706 4.68775452 5.06326356 6 9 C6.66 9 7.32 9 8 9 C8.33 9.99 8.66 10.98 9 12 C8.01 12.495 8.01 12.495 7 13 C6.34 12.01 5.68 11.02 5 10 C4.319375 9.773125 3.63875 9.54625 2.9375 9.3125 C1 8 1 8 0.51953125 6.09765625 C0.27395905 4.07257537 0.13133445 2.03568405 0 0 Z " fill="#F3C072" transform="translate(138,326)"/>
<path d="M0 0 C1.80030122 2.70045182 2.93377066 5.06677881 4.125 8.0625 C4.47820312 8.94035156 4.83140625 9.81820313 5.1953125 10.72265625 C6 13 6 13 6 15 C5.34 15 4.68 15 4 15 C4 14.34 4 13.68 4 13 C3.01 13 2.02 13 1 13 C0.67 8.71 0.34 4.42 0 0 Z " fill="#F2BD6E" transform="translate(123,296)"/>
<path d="M0 0 C4.455 0.99 4.455 0.99 9 2 C9.33 3.98 9.66 5.96 10 8 C10.66 8 11.32 8 12 8 C11.67 8.66 11.34 9.32 11 10 C9.16375669 8.52444734 7.3310715 7.04446569 5.5 5.5625 C4.4790625 4.73878906 3.458125 3.91507813 2.40625 3.06640625 C1.6121875 2.38449219 0.818125 1.70257813 0 1 C0 0.67 0 0.34 0 0 Z " fill="#F4C578" transform="translate(333,146)"/>
<path d="M0 0 C1.8871875 0.061875 1.8871875 0.061875 3.8125 0.125 C0.7791221 2.14725194 -1.80094489 3.11847524 -5.25 4.25 C-6.31347656 4.60320312 -7.37695312 4.95640625 -8.47265625 5.3203125 C-11.1875 6.125 -11.1875 6.125 -13.1875 6.125 C-13.1875 5.465 -13.1875 4.805 -13.1875 4.125 C-11.7953125 3.691875 -11.7953125 3.691875 -10.375 3.25 C-1.0675 -0.035 -1.0675 -0.035 0 0 Z " fill="#F4C175" transform="translate(313.1875,424.875)"/>
<path d="M0 0 C1.83008048 4.88021461 0.600262 10.19921401 -1 15 C-1.99 15.495 -1.99 15.495 -3 16 C-4.76980203 10.69059392 -2.17970777 4.9821892 0 0 Z " fill="#F3BB62" transform="translate(373,303)"/>
<path d="M0 0 C0.33 0 0.66 0 1 0 C1 2.97 1 5.94 1 9 C0.34 9 -0.32 9 -1 9 C-1 10.98 -1 12.96 -1 15 C-1.66 15 -2.32 15 -3 15 C-3.33 15.99 -3.66 16.98 -4 18 C-5 16 -5 16 -4.2578125 13.57421875 C-3.88398438 12.62160156 -3.51015625 11.66898437 -3.125 10.6875 C-1.73557694 7.12649614 -0.64576945 3.77156837 0 0 Z " fill="#F3C885" transform="translate(380,282)"/>
<path d="M0 0 C1.35304209 4.05912626 0.15216503 5.77149591 -1.4375 9.6875 C-2.14712891 11.45673828 -2.14712891 11.45673828 -2.87109375 13.26171875 C-3.24363281 14.16535156 -3.61617188 15.06898438 -4 16 C-4.33 16 -4.66 16 -5 16 C-4.67 12.7 -4.34 9.4 -4 6 C-3.34 6 -2.68 6 -2 6 C-1.34 4.02 -0.68 2.04 0 0 Z " fill="#F5C581" transform="translate(331,274)"/>
<path d="M0 0 C2.48982535 2.27745789 4.10368997 4.62335238 5.75 7.5625 C6.19859375 8.34753906 6.6471875 9.13257813 7.109375 9.94140625 C7.40328125 10.62074219 7.6971875 11.30007812 8 12 C7.67 12.66 7.34 13.32 7 14 C6.34 13.67 5.68 13.34 5 13 C5 12.01 5 11.02 5 10 C4.34 10 3.68 10 3 10 C0.96564469 6.27034861 0 4.33094958 0 0 Z " fill="#F3C37B" transform="translate(410,157)"/>
<path d="M0 0 C-1.41328129 0.81837442 -2.83078346 1.62946219 -4.25 2.4375 C-5.43335938 3.11619141 -5.43335938 3.11619141 -6.640625 3.80859375 C-8.78833468 4.89311602 -10.65205061 5.53148716 -13 6 C-13 5.01 -13 4.02 -13 3 C-11.02 3 -9.04 3 -7 3 C-7 2.01 -7 1.02 -7 0 C-3.86650268 -1.04449911 -3.01031744 -0.93423645 0 0 Z " fill="#F2C67D" transform="translate(338,416)"/>
<path d="M0 0 C2.475 0.495 2.475 0.495 5 1 C5 1.66 5 2.32 5 3 C5.598125 3.061875 6.19625 3.12375 6.8125 3.1875 C9.87143458 4.3236757 10.55041099 6.17330142 12 9 C9.0280615 7.87548273 6.66559313 6.77706209 4 5 C4 4.34 4 3.68 4 3 C2.68 2.34 1.36 1.68 0 1 C0 0.67 0 0.34 0 0 Z " fill="#F1C377" transform="translate(129,393)"/>
<path d="M0 0 C1.7074998 1.28062485 3.37373596 2.61767557 5 4 C5 4.66 5 5.32 5 6 C5.66 6 6.32 6 7 6 C6.67 6.66 6.34 7.32 6 8 C5.34 8 4.68 8 4 8 C4 7.34 4 6.68 4 6 C3.01 6.33 2.02 6.66 1 7 C0.34 6.67 -0.32 6.34 -1 6 C-0.67 4.02 -0.34 2.04 0 0 Z " fill="#F5C368" transform="translate(307,188)"/>
<path d="M0 0 C1.32 1.32 2.64 2.64 4 4 C4 3.34 4 2.68 4 2 C7.3 2 10.6 2 14 2 C10.71508627 4.18994248 9.16904361 4.35277339 5.3125 4.625 C3.82169922 4.73714844 3.82169922 4.73714844 2.30078125 4.8515625 C1.54152344 4.90054687 0.78226562 4.94953125 0 5 C0 3.35 0 1.7 0 0 Z " fill="#F0BD6B" transform="translate(284,429)"/>
<path d="M0 0 C0.99 0.33 1.98 0.66 3 1 C2.00269864 3.4932534 1.34925469 4.77467439 -0.9375 6.25 C-3 7 -3 7 -6 7 C-6 6.34 -6 5.68 -6 5 C-5.01 4.67 -4.02 4.34 -3 4 C-3 3.34 -3 2.68 -3 2 C-2.01 1.34 -1.02 0.68 0 0 Z " fill="#F7BA5F" transform="translate(323,418)"/>
<path d="M0 0 C0.33 0.99 0.66 1.98 1 3 C-3.62 2.01 -8.24 1.02 -13 0 C-13 -0.33 -13 -0.66 -13 -1 C-8.08295331 -2.26438344 -4.75035002 -1.58345001 0 0 Z " fill="#F3C274" transform="translate(265,219)"/>
<path d="M0 0 C2.62030687 4.86628419 4.3283194 9.4185702 4 15 C3.34 15 2.68 15 2 15 C2 12.69 2 10.38 2 8 C1.34 8 0.68 8 0 8 C0 5.36 0 2.72 0 0 Z " fill="#F2C37C" transform="translate(427,194)"/>
<path d="M0 0 C3.08089673 2.77280706 4.68775452 5.06326356 6 9 C5.01 9.33 4.02 9.66 3 10 C2.67 8.68 2.34 7.36 2 6 C1.01 6 0.02 6 -1 6 C-0.67 4.02 -0.34 2.04 0 0 Z " fill="#F4BA6A" transform="translate(401,143)"/>
<path d="M0 0 C0.33 0.99 0.66 1.98 1 3 C1.66 3 2.32 3 3 3 C6 7.38461538 6 7.38461538 6 10 C4.125 9.8125 4.125 9.8125 2 9 C0.21715186 5.70173093 0 3.8225249 0 0 Z " fill="#F3C67E" transform="translate(132,316)"/>
<path d="M0 0 C1 2 1 2 0.1875 4.5 C-1 7 -1 7 -3 9 C-5.125 8.625 -5.125 8.625 -7 8 C-5.71937515 6.2925002 -4.38232443 4.62626404 -3 3 C-2.34 3 -1.68 3 -1 3 C-0.67 2.01 -0.34 1.02 0 0 Z " fill="#F3C479" transform="translate(355,334)"/>
<path d="M0 0 C3.57011026 3.732388 4.10913442 8.0949989 5 13 C2.53686261 11.17251097 1.16571382 9.77023784 0.51171875 6.73046875 C0.27481707 4.48520654 0.09638651 2.25544422 0 0 Z " fill="#F3C37A" transform="translate(422,181)"/>
<path d="M0 0 C3.08089673 2.77280706 4.68775452 5.06326356 6 9 C4.68 8.67 3.36 8.34 2 8 C2 8.66 2 9.32 2 10 C1.34 9.67 0.68 9.34 0 9 C0.66 7.35 1.32 5.7 2 4 C1.34 4 0.68 4 0 4 C0 2.68 0 1.36 0 0 Z " fill="#F5C477" transform="translate(315,196)"/>
<path d="M0 0 C2.97 0 5.94 0 9 0 C9.66 1.32 10.32 2.64 11 4 C7.37 3.01 3.74 2.02 0 1 C0 0.67 0 0.34 0 0 Z " fill="#F6C87F" transform="translate(188,427)"/>
<path d="M0 0 C0.33 0 0.66 0 1 0 C2.33583899 4.84241633 3.25328119 8.93437617 3 14 C1.26263341 11.39395012 0.54996173 9.92766764 -0.1875 7 C-0.36667969 6.319375 -0.54585938 5.63875 -0.73046875 4.9375 C-1 3 -1 3 0 0 Z " fill="#F2BF73" transform="translate(72,301)"/>
<path d="M0 0 C3.63 0.33 7.26 0.66 11 1 C11 1.66 11 2.32 11 3 C11.66 3.33 12.32 3.66 13 4 C8.51474352 3.343621 4.33085971 2.29925791 0 1 C0 0.67 0 0.34 0 0 Z " fill="#F2C683" transform="translate(280,120)"/>
<path d="M0 0 C6.52307692 1.35384615 6.52307692 1.35384615 8.9375 4.625 C9.288125 5.40875 9.63875 6.1925 10 7 C5.56541027 5.6062718 3.12621626 3.39417765 0 0 Z " fill="#F3C17B" transform="translate(141,402)"/>
<path d="M0 0 C1.98 0.66 3.96 1.32 6 2 C3.63707344 4.52588702 2.33537489 5.88820837 -1 7 C-0.67 4.69 -0.34 2.38 0 0 Z " fill="#F3BE68" transform="translate(352,401)"/>
<path d="M0 0 C2.125 0.375 2.125 0.375 4 1 C2.71283353 2.00578589 1.42011342 3.00446798 0.125 4 C-0.95394531 4.8353125 -0.95394531 4.8353125 -2.0546875 5.6875 C-4 7 -4 7 -6 7 C-5 4 -5 4 -2 2 C-1.34 1.34 -0.68 0.68 0 0 Z " fill="#F1CB84" transform="translate(365,395)"/>
<path d="M0 0 C0.66 0 1.32 0 2 0 C2 0.66 2 1.32 2 2 C2.66 2 3.32 2 4 2 C3.625 3.9375 3.625 3.9375 3 6 C2.01 6.495 2.01 6.495 1 7 C-0.0625 4.625 -0.0625 4.625 -1 2 C-0.67 1.34 -0.34 0.68 0 0 Z " fill="#F8B653" transform="translate(386,370)"/>
<path d="M0 0 C2.12038635 2.61514317 4.13091744 5.19637616 6 8 C5.67 8.99 5.34 9.98 5 11 C5 10.34 5 9.68 5 9 C4.34 9 3.68 9 3 9 C3 8.34 3 7.68 3 7 C2.34 7 1.68 7 1 7 C0.67 4.69 0.34 2.38 0 0 Z " fill="#F2C378" transform="translate(321,205)"/>
<path d="M0 0 C-0.66 0 -1.32 0 -2 0 C-2 0.66 -2 1.32 -2 2 C-5.3 2.33 -8.6 2.66 -12 3 C-8.61613364 -0.38386636 -4.56431325 -1.75550509 0 0 Z " fill="#F2C683" transform="translate(296,379)"/>
<path d="M0 0 C1.65 0 3.3 0 5 0 C3.8141763 3.37503669 2.72426311 5.64722731 0 8 C0 5.36 0 2.72 0 0 Z " fill="#F5BD73" transform="translate(404,348)"/>
<path d="M0 0 C1.43836751 0.11458693 2.87570966 0.24209116 4.3125 0.375 C5.51326172 0.47941406 5.51326172 0.47941406 6.73828125 0.5859375 C9 1 9 1 12 3 C12 3.66 12 4.32 12 5 C10.56068883 4.54738642 9.12361001 4.08767021 7.6875 3.625 C6.88699219 3.36976563 6.08648437 3.11453125 5.26171875 2.8515625 C3 2 3 2 0 0 Z " fill="#F0BF72" transform="translate(298,126)"/>
<path d="M0 0 C5.875 3.75 5.875 3.75 7 6 C4.69 5.67 2.38 5.34 0 5 C0 3.35 0 1.7 0 0 Z " fill="#F4C778" transform="translate(371,110)"/>
<path d="M0 0 C-0.625 1.9375 -0.625 1.9375 -2 4 C-5.125 4.75 -5.125 4.75 -8 5 C-3.16129032 0 -3.16129032 0 0 0 Z " fill="#F4C371" transform="translate(327,362)"/>
<path d="M0 0 C0.33 1.32 0.66 2.64 1 4 C1.66 4 2.32 4 3 4 C2.67 7.3 2.34 10.6 2 14 C1.67 14 1.34 14 1 14 C0.67 9.38 0.34 4.76 0 0 Z " fill="#F2C279" transform="translate(382,225)"/>
<path d="M0 0 C2.875 0.1875 2.875 0.1875 6 1 C7.375 3.5625 7.375 3.5625 8 6 C7.34 6 6.68 6 6 6 C6 5.34 6 4.68 6 4 C5.38125 3.71125 4.7625 3.4225 4.125 3.125 C2 2 2 2 0 0 Z " fill="#F1C47D" transform="translate(266,222)"/>
<path d="M0 0 C1.32 0.33 2.64 0.66 4 1 C4 1.66 4 2.32 4 3 C6.475 3.99 6.475 3.99 9 5 C6 6 6 6 3.8125 5.0625 C3.214375 4.711875 2.61625 4.36125 2 4 C2 3.34 2 2.68 2 2 C1.34 2 0.68 2 0 2 C0 1.34 0 0.68 0 0 Z " fill="#F3C885" transform="translate(293,178)"/>
<path d="M0 0 C2.04119788 1.61594832 4.04072937 3.2856382 6 5 C6 5.66 6 6.32 6 7 C6.66 7 7.32 7 8 7 C7.67 7.66 7.34 8.32 7 9 C6.566875 8.525625 6.13375 8.05125 5.6875 7.5625 C3.97690387 5.76313043 3.97690387 5.76313043 1 5 C0.67 3.35 0.34 1.7 0 0 Z " fill="#F3D38D" transform="translate(380,118)"/>
<path d="M0 0 C2.40072955 2.88087546 4.47291037 5.56404834 6 9 C4.68 8.67 3.36 8.34 2 8 C2 6.68 2 5.36 2 4 C1.34 4 0.68 4 0 4 C0 2.68 0 1.36 0 0 Z " fill="#F4CC86" transform="translate(395,134)"/>
<path d="M0 0 C0 0.66 0 1.32 0 2 C-4.15267176 5.11450382 -4.15267176 5.11450382 -7.3125 4.6875 C-7.869375 4.460625 -8.42625 4.23375 -9 4 C-2.25 0 -2.25 0 0 0 Z " fill="#F2C77E" transform="translate(319,367)"/>
<path d="M0 0 C0.66 0 1.32 0 2 0 C1.38461538 6.52307692 1.38461538 6.52307692 -0.5625 8.9375 C-1.036875 9.288125 -1.51125 9.63875 -2 10 C-2 8.35 -2 6.7 -2 5 C-1.34 5 -0.68 5 0 5 C0 3.35 0 1.7 0 0 Z " fill="#F5BE6A" transform="translate(411,338)"/>
<path d="M0 0 C1 2 1 2 0.875 4 C0 6 0 6 -2.5625 7.25 C-3.366875 7.4975 -4.17125 7.745 -5 8 C-5 7.34 -5 6.68 -5 6 C-4.34 6 -3.68 6 -3 6 C-2.690625 5.195625 -2.38125 4.39125 -2.0625 3.5625 C-1 1 -1 1 0 0 Z " fill="#F3CA83" transform="translate(361,326)"/>
<path d="M0 0 C0.99 0 1.98 0 3 0 C3.33 2.97 3.66 5.94 4 9 C2.00902154 6.01353231 1.05875074 3.40312738 0 0 Z " fill="#F3C379" transform="translate(278,233)"/>
<path d="M0 0 C1.98 0.99 1.98 0.99 4 2 C4 2.66 4 3.32 4 4 C4.99 4.33 5.98 4.66 7 5 C4 6 4 6 1 5 C0.67 3.35 0.34 1.7 0 0 Z " fill="#F4C883" transform="translate(364,104)"/>
</svg>
