<svg width="20" height="19" viewBox="0 0 20 19" fill="none" xmlns="http://www.w3.org/2000/svg">
<path fill-rule="evenodd" clip-rule="evenodd" d="M6.25 0H13.75C17.2013 0 20 2.58789 20 5.77911V12.714C20 15.9053 17.2013 18.4932 13.75 18.4932H6.25C2.79875 18.4932 0 15.9053 0 12.714V5.77911C0 2.58789 2.79875 0 6.25 0ZM13.75 16.7594C16.1625 16.7594 18.125 14.9448 18.125 12.714V5.77911C18.125 3.54837 16.1625 1.73373 13.75 1.73373H6.25C3.8375 1.73373 1.875 3.54837 1.875 5.77911V12.714C1.875 14.9448 3.8375 16.7594 6.25 16.7594H13.75Z" fill="#1E2833" style="fill:#1E2833;fill:color(display-p3 0.1176 0.1569 0.2000);fill-opacity:1;"/>
<path fill-rule="evenodd" clip-rule="evenodd" d="M5 9.24658C5 6.69337 7.23875 4.62329 10 4.62329C12.7613 4.62329 15 6.69337 15 9.24658C15 11.7998 12.7613 13.8699 10 13.8699C7.23875 13.8699 5 11.7998 5 9.24658ZM6.875 9.24658C6.875 10.8393 8.2775 12.1361 10 12.1361C11.7225 12.1361 13.125 10.8393 13.125 9.24658C13.125 7.6527 11.7225 6.35702 10 6.35702C8.2775 6.35702 6.875 7.6527 6.875 9.24658Z" fill="#1E2833" style="fill:#1E2833;fill:color(display-p3 0.1176 0.1569 0.2000);fill-opacity:1;"/>
<ellipse cx="15.3752" cy="4.27658" rx="0.66625" ry="0.616053" fill="#1E2833" style="fill:#1E2833;fill:color(display-p3 0.1176 0.1569 0.2000);fill-opacity:1;"/>
</svg>
