<svg width="19" height="19" viewBox="0 0 19 19" fill="none" xmlns="http://www.w3.org/2000/svg">
<path d="M14.1331 10.9051C13.9289 11.0963 13.835 11.3728 13.8815 11.6439L14.5827 15.3911C14.6419 15.7087 14.5031 16.0301 14.2278 16.2136C13.9581 16.404 13.5992 16.4269 13.305 16.2745L9.81176 14.5152C9.6903 14.4528 9.55543 14.4192 9.4174 14.4154H9.20366C9.12952 14.4261 9.05696 14.4489 8.9907 14.484L5.49668 16.2517C5.32395 16.3355 5.12835 16.3652 4.93669 16.3355C4.46977 16.2502 4.15823 15.8206 4.23473 15.3675L4.93669 11.6203C4.98322 11.3469 4.88937 11.0689 4.68509 10.8747L1.83703 8.20902C1.59883 7.98587 1.51602 7.65076 1.62486 7.34839C1.73055 7.04679 2.00029 6.82669 2.32603 6.77718L6.24596 6.22805C6.5441 6.19835 6.80595 6.02318 6.94004 5.76423L8.66733 2.34457C8.70834 2.26841 8.76119 2.19834 8.82507 2.13893L8.89606 2.08562C8.93313 2.04602 8.97572 2.01327 9.02304 1.98661L9.10901 1.95615L9.24309 1.90283H9.57514C9.8717 1.93254 10.1328 2.1039 10.2692 2.3598L12.0194 5.76423C12.1456 6.01328 12.3909 6.18617 12.674 6.22805L16.5939 6.77718C16.9252 6.82288 17.2021 7.04375 17.3117 7.34839C17.415 7.6538 17.3259 7.98891 17.083 8.20902L14.1331 10.9051Z" fill="#F6B76F" style="fill:#F6B76F;fill:color(display-p3 0.9647 0.7176 0.4353);fill-opacity:1;"/>
</svg>
