<svg width="20" height="15" viewBox="0 0 20 15" fill="none" xmlns="http://www.w3.org/2000/svg">
<path d="M19.5556 1.73928C18.8283 2.03425 18.0534 2.22976 17.2456 2.32469C18.0767 1.86586 18.711 1.14483 19.0092 0.275753C18.2343 0.702945 17.3788 1.00469 16.467 1.17308C15.7312 0.448664 14.6826 0 13.5386 0C11.319 0 9.53211 1.66582 9.53211 3.70798C9.53211 4.00182 9.559 4.28435 9.625 4.55332C6.292 4.40301 3.34278 2.92592 1.36156 0.675822C1.01567 1.23072 0.812778 1.86586 0.812778 2.54959C0.812778 3.83342 1.52778 4.97147 2.59356 5.63034C1.94944 5.61904 1.31756 5.44613 0.782222 5.17377C0.782222 5.18507 0.782222 5.19976 0.782222 5.21445C0.782222 7.01589 2.17189 8.51219 3.99422 8.85688C3.66789 8.93938 3.31222 8.97894 2.94311 8.97894C2.68644 8.97894 2.42733 8.96538 2.18411 8.91565C2.70356 10.3837 4.17756 11.463 5.93022 11.498C4.56622 12.4846 2.83433 13.0791 0.959444 13.0791C0.630667 13.0791 0.315333 13.0655 0 13.0282C1.77589 14.0872 3.88056 14.6918 6.15022 14.6918C13.5276 14.6918 17.5609 9.0411 17.5609 4.14308C17.5609 3.97921 17.5548 3.82099 17.5462 3.6639C18.3419 3.14178 19.0104 2.48969 19.5556 1.73928Z" fill="#1E2833" style="fill:#1E2833;fill:color(display-p3 0.1176 0.1569 0.2000);fill-opacity:1;"/>
</svg>
